<svg id="Layer_1" data-name="Layer 1" xmlns="http://www.w3.org/2000/svg" viewBox="0 0 216 286.29"><defs><style>.cls-1,.cls-4{fill:#fff;stroke-width:6px;}.cls-1,.cls-5,.cls-6,.cls-7{stroke:#ed1c24;}.cls-1,.cls-4,.cls-5,.cls-6,.cls-7,.cls-9{stroke-miterlimit:10;}.cls-2{font-size:70.36px;}.cls-10,.cls-2,.cls-5,.cls-8{fill:#ed1c24;}.cls-10,.cls-2{font-family:Baskerville-Bold, Baskerville;font-weight:700;}.cls-3{letter-spacing:-0.06em;}.cls-4,.cls-9{stroke:#000;}.cls-7,.cls-9{fill:none;}.cls-10{font-size:18px;}</style></defs><rect class="cls-1" x="3" y="3" width="210" height="200"/><text class="cls-2" transform="translate(50.44 82.18) scale(1.39 1)">PS</text><text class="cls-2" transform="translate(51.58 174.48) scale(1.39 1)"><tspan class="cls-3">L</tspan><tspan x="40.75" y="0">V</tspan></text><path class="cls-4" d="M680.4,375.31" transform="translate(-573.33 -296.31)"/><path class="cls-5" d="M684.94,407.17l-2.57,5.58c-3.32-2.73-15.4-12-35.09-13.84a70.74,70.74,0,0,0-41.88,9l9.49-20.63a83.13,83.13,0,0,1,35.7.41C670.68,392.47,681.59,403.48,684.94,407.17Z" transform="translate(-573.33 -296.31)"/><path class="cls-5" d="M679.86,406.93l2.75,5.88a63.39,63.39,0,0,1,34.9-14.14,70.75,70.75,0,0,1,41.89,9l-9.49-20.63a83.13,83.13,0,0,0-35.7.41C694.12,392.23,683.21,403.25,679.86,406.93Z" transform="translate(-573.33 -296.31)"/><line class="cls-6" x1="164.33" y1="68.75" x2="176.58" y2="90.75"/><line class="cls-6" x1="41.31" y1="91.87" x2="53.55" y2="69.87"/><path class="cls-7" d="M626.9,366.81a73.54,73.54,0,0,1,28.44-1.8c11.51,1.51,21.42,8,26.56,10.8" transform="translate(-573.33 -296.31)"/><path class="cls-7" d="M736.56,367.26a73.74,73.74,0,0,0-28.44-1.8c-11.5,1.52-21.42,8-26.56,10.8" transform="translate(-573.33 -296.31)"/><polygon class="cls-8" points="153.53 130.29 177.6 113.94 179.23 142.99 153.53 130.29"/><path class="cls-8" d="M750.48,411.15,752,438.47l-24.16-11.94,22.63-15.38m.9-1.82-25.51,17.34,27.23,13.46-1.72-30.8Z" transform="translate(-573.33 -296.31)"/><path class="cls-9" d="M681.9,376.81" transform="translate(-573.33 -296.31)"/><text class="cls-10" transform="translate(27.48 224.37)">Propel Your Future</text></svg>